<mxfile host="app.diagrams.net" modified="2022-12-16T19:27:04.148Z" agent="5.0 (X11; Linux x86_64) AppleWebKit/537.36 (KHTML, like Gecko) Chrome/108.0.0.0 Safari/537.36" version="20.6.0" etag="LcPkJU5hNmLLueiq2exC" type="github">
  <diagram id="OKJhrKudEIHIYbJF0m4G" name="Page-1">
    <mxGraphModel dx="795" dy="460" grid="1" gridSize="10" guides="1" tooltips="1" connect="1" arrows="1" fold="1" page="1" pageScale="1" pageWidth="850" pageHeight="1100" math="0" shadow="0">
      <root>
        <mxCell id="0" />
        <mxCell id="1" parent="0" />
        <mxCell id="UIh68vjSH7njSflNUUpS-5" value="OrdersDTO" style="html=1;" vertex="1" parent="1">
          <mxGeometry x="230" y="190" width="110" height="50" as="geometry" />
        </mxCell>
        <mxCell id="UIh68vjSH7njSflNUUpS-6" value="Controller" style="swimlane;fontStyle=1;align=center;verticalAlign=top;childLayout=stackLayout;horizontal=1;startSize=26;horizontalStack=0;resizeParent=1;resizeParentMax=0;resizeLast=0;collapsible=1;marginBottom=0;" vertex="1" parent="1">
          <mxGeometry x="520" y="90" width="160" height="86" as="geometry" />
        </mxCell>
        <mxCell id="UIh68vjSH7njSflNUUpS-7" value="+ field: type" style="text;strokeColor=none;fillColor=none;align=left;verticalAlign=top;spacingLeft=4;spacingRight=4;overflow=hidden;rotatable=0;points=[[0,0.5],[1,0.5]];portConstraint=eastwest;" vertex="1" parent="UIh68vjSH7njSflNUUpS-6">
          <mxGeometry y="26" width="160" height="26" as="geometry" />
        </mxCell>
        <mxCell id="UIh68vjSH7njSflNUUpS-8" value="" style="line;strokeWidth=1;fillColor=none;align=left;verticalAlign=middle;spacingTop=-1;spacingLeft=3;spacingRight=3;rotatable=0;labelPosition=right;points=[];portConstraint=eastwest;strokeColor=inherit;" vertex="1" parent="UIh68vjSH7njSflNUUpS-6">
          <mxGeometry y="52" width="160" height="8" as="geometry" />
        </mxCell>
        <mxCell id="UIh68vjSH7njSflNUUpS-9" value="+ method(type): type" style="text;strokeColor=none;fillColor=none;align=left;verticalAlign=top;spacingLeft=4;spacingRight=4;overflow=hidden;rotatable=0;points=[[0,0.5],[1,0.5]];portConstraint=eastwest;" vertex="1" parent="UIh68vjSH7njSflNUUpS-6">
          <mxGeometry y="60" width="160" height="26" as="geometry" />
        </mxCell>
        <mxCell id="UIh68vjSH7njSflNUUpS-10" value="View" style="swimlane;fontStyle=0;childLayout=stackLayout;horizontal=1;startSize=26;fillColor=none;horizontalStack=0;resizeParent=1;resizeParentMax=0;resizeLast=0;collapsible=1;marginBottom=0;" vertex="1" parent="1">
          <mxGeometry x="530" y="300" width="140" height="104" as="geometry" />
        </mxCell>
        <mxCell id="UIh68vjSH7njSflNUUpS-11" value="+ field: type" style="text;strokeColor=none;fillColor=none;align=left;verticalAlign=top;spacingLeft=4;spacingRight=4;overflow=hidden;rotatable=0;points=[[0,0.5],[1,0.5]];portConstraint=eastwest;" vertex="1" parent="UIh68vjSH7njSflNUUpS-10">
          <mxGeometry y="26" width="140" height="26" as="geometry" />
        </mxCell>
        <mxCell id="UIh68vjSH7njSflNUUpS-12" value="+ field: type" style="text;strokeColor=none;fillColor=none;align=left;verticalAlign=top;spacingLeft=4;spacingRight=4;overflow=hidden;rotatable=0;points=[[0,0.5],[1,0.5]];portConstraint=eastwest;" vertex="1" parent="UIh68vjSH7njSflNUUpS-10">
          <mxGeometry y="52" width="140" height="26" as="geometry" />
        </mxCell>
        <mxCell id="UIh68vjSH7njSflNUUpS-13" value="+ field: type" style="text;strokeColor=none;fillColor=none;align=left;verticalAlign=top;spacingLeft=4;spacingRight=4;overflow=hidden;rotatable=0;points=[[0,0.5],[1,0.5]];portConstraint=eastwest;" vertex="1" parent="UIh68vjSH7njSflNUUpS-10">
          <mxGeometry y="78" width="140" height="26" as="geometry" />
        </mxCell>
        <mxCell id="UIh68vjSH7njSflNUUpS-14" value="TaxesDTO" style="html=1;" vertex="1" parent="1">
          <mxGeometry x="40" y="90" width="110" height="50" as="geometry" />
        </mxCell>
        <mxCell id="UIh68vjSH7njSflNUUpS-15" value="ProductsDTO" style="html=1;" vertex="1" parent="1">
          <mxGeometry x="40" y="290" width="110" height="50" as="geometry" />
        </mxCell>
        <mxCell id="UIh68vjSH7njSflNUUpS-16" value="Relation" style="endArrow=open;html=1;endSize=12;startArrow=diamondThin;startSize=14;startFill=0;edgeStyle=orthogonalEdgeStyle;rounded=0;exitX=0.5;exitY=0;exitDx=0;exitDy=0;" edge="1" parent="1" source="UIh68vjSH7njSflNUUpS-15">
          <mxGeometry relative="1" as="geometry">
            <mxPoint x="320" y="240" as="sourcePoint" />
            <mxPoint x="290" y="240" as="targetPoint" />
            <Array as="points">
              <mxPoint x="95" y="265" />
              <mxPoint x="290" y="265" />
              <mxPoint x="290" y="240" />
            </Array>
          </mxGeometry>
        </mxCell>
        <mxCell id="UIh68vjSH7njSflNUUpS-17" value="1..n" style="edgeLabel;resizable=0;html=1;align=left;verticalAlign=top;" connectable="0" vertex="1" parent="UIh68vjSH7njSflNUUpS-16">
          <mxGeometry x="-1" relative="1" as="geometry">
            <mxPoint x="-9" as="offset" />
          </mxGeometry>
        </mxCell>
        <mxCell id="UIh68vjSH7njSflNUUpS-18" value="1" style="edgeLabel;resizable=0;html=1;align=right;verticalAlign=top;" connectable="0" vertex="1" parent="UIh68vjSH7njSflNUUpS-16">
          <mxGeometry x="1" relative="1" as="geometry" />
        </mxCell>
        <mxCell id="UIh68vjSH7njSflNUUpS-19" value="1" style="endArrow=open;html=1;endSize=12;startArrow=diamondThin;startSize=14;startFill=0;edgeStyle=orthogonalEdgeStyle;align=left;verticalAlign=bottom;rounded=0;exitX=0.5;exitY=1;exitDx=0;exitDy=0;" edge="1" parent="1" source="UIh68vjSH7njSflNUUpS-14">
          <mxGeometry x="-1" y="3" relative="1" as="geometry">
            <mxPoint x="320" y="240" as="sourcePoint" />
            <mxPoint x="290" y="190" as="targetPoint" />
            <Array as="points">
              <mxPoint x="95" y="160" />
              <mxPoint x="290" y="160" />
            </Array>
          </mxGeometry>
        </mxCell>
        <mxCell id="UIh68vjSH7njSflNUUpS-20" value="" style="endArrow=block;startArrow=block;endFill=1;startFill=1;html=1;rounded=0;exitX=1;exitY=0.5;exitDx=0;exitDy=0;" edge="1" parent="1" source="UIh68vjSH7njSflNUUpS-5" target="UIh68vjSH7njSflNUUpS-6">
          <mxGeometry width="160" relative="1" as="geometry">
            <mxPoint x="320" y="240" as="sourcePoint" />
            <mxPoint x="480" y="240" as="targetPoint" />
          </mxGeometry>
        </mxCell>
        <mxCell id="UIh68vjSH7njSflNUUpS-21" value="" style="endArrow=block;startArrow=block;endFill=1;startFill=1;html=1;rounded=0;exitX=0.5;exitY=0;exitDx=0;exitDy=0;" edge="1" parent="1" source="UIh68vjSH7njSflNUUpS-10" target="UIh68vjSH7njSflNUUpS-6">
          <mxGeometry width="160" relative="1" as="geometry">
            <mxPoint x="320" y="240" as="sourcePoint" />
            <mxPoint x="480" y="240" as="targetPoint" />
          </mxGeometry>
        </mxCell>
        <mxCell id="UIh68vjSH7njSflNUUpS-22" value="backup" style="html=1;" vertex="1" parent="1">
          <mxGeometry x="260" y="20" width="110" height="50" as="geometry" />
        </mxCell>
        <mxCell id="UIh68vjSH7njSflNUUpS-23" value="Relation" style="endArrow=open;html=1;endSize=12;startArrow=diamondThin;startSize=14;startFill=0;edgeStyle=orthogonalEdgeStyle;rounded=0;exitX=0.75;exitY=0;exitDx=0;exitDy=0;entryX=0.5;entryY=1;entryDx=0;entryDy=0;" edge="1" parent="1" source="UIh68vjSH7njSflNUUpS-5" target="UIh68vjSH7njSflNUUpS-22">
          <mxGeometry relative="1" as="geometry">
            <mxPoint x="280" y="190" as="sourcePoint" />
            <mxPoint x="313" y="80" as="targetPoint" />
          </mxGeometry>
        </mxCell>
        <mxCell id="UIh68vjSH7njSflNUUpS-24" value="0..n" style="edgeLabel;resizable=0;html=1;align=left;verticalAlign=top;" connectable="0" vertex="1" parent="UIh68vjSH7njSflNUUpS-23">
          <mxGeometry x="-1" relative="1" as="geometry" />
        </mxCell>
        <mxCell id="UIh68vjSH7njSflNUUpS-25" value="1" style="edgeLabel;resizable=0;html=1;align=right;verticalAlign=top;" connectable="0" vertex="1" parent="UIh68vjSH7njSflNUUpS-23">
          <mxGeometry x="1" relative="1" as="geometry" />
        </mxCell>
      </root>
    </mxGraphModel>
  </diagram>
</mxfile>
